# xmcd
#
# Track frame offsets:
# 150
# 13379
# 26966
# 43167
# 59830
# 72203
# 88281
# 106932
# 118723
# 135535
# 148496
# 165172
# 181277
# 197113
# 220278
#
# Disc length: 3171 seconds
#
#
# Revision: 1
# Processed by: cddbd v1.5.1PL2 Copyright (c) Steve Scherf et al.
# Submitted via: FreeRIP 2.944 
#
DISCID=ed0c610f
DTITLE=Peter Cornelius - master series
DYEAR=1998
DGENRE=Rock
TTITLE0=Die Wolk'n
TTITLE1=Eine Rose aus Papier
TTITLE2=Hampelmann
TTITLE3=Es ist nie zu spät
TTITLE4=Fleckerl Teppich
TTITLE5=Wenn's die net hilft (Schaden kann's a net)
TTITLE6=Ein Diamant verbrennt
TTITLE7=Wie schön dich wiederzusehen
TTITLE8=Calafati
TTITLE9=Träumer, Trampus und Clowns
TTITLE10=Kindheit
TTITLE11=Es ist nicht wichtig, daß dir Schönheit gegeben ist
TTITLE12=Sonnenblumen
TTITLE13=Ich möcht' noch einmal ganz am Anfang steh' n
TTITLE14=Mit' n Schmäh
EXTD=
EXTT0=
EXTT1=
EXTT2=
EXTT3=
EXTT4=
EXTT5=
EXTT6=
EXTT7=
EXTT8=
EXTT9=
EXTT10=
EXTT11=
EXTT12=
EXTT13=
EXTT14=
PLAYORDER=
